PathFileType	4	(X/Y/Z)	/Users/itak/Documents/Research/Walk-IL/dataset/trc/00148_00007.trc
DataRate	CameraRate	NumFrames	NumMarkers	Units	OrigDataRate	OrigDataStartFrame	OrigNumFrames
100.000000	100.000000	4	54	mm	100.000000	341	547
Frame#	Time	RPSI			LPSI			L3			STRN			T10			C7			CLAV			RBAK			LBAK			LSHO			LUPA			LAEL			LAOL			LWTS			LWPS			LFRA			LIFD			LHPS			LHTS			RSHO			RUPA			RAEL			RAOL			RWTS			RWPS			RFRA			RIFD			RHTS			RHPS			RBHD			LFHD			RFHD			LBHD			LHIP			RHIP			RASI			LASI			LKNE			LTHI			LANK			LTIP			LTOE			LMT1			LMT5			LHEE			RKNE			RTHI			RANK			RTIP			RTOE			RMT1			RMT5			RHEE			*53			
		X1	Y1	Z1	X2	Y2	Z2	X3	Y3	Z3	X4	Y4	Z4	X5	Y5	Z5	X6	Y6	Z6	X7	Y7	Z7	X8	Y8	Z8	X9	Y9	Z9	X10	Y10	Z10	X11	Y11	Z11	X12	Y12	Z12	X13	Y13	Z13	X14	Y14	Z14	X15	Y15	Z15	X16	Y16	Z16	X17	Y17	Z17	X18	Y18	Z18	X19	Y19	Z19	X20	Y20	Z20	X21	Y21	Z21	X22	Y22	Z22	X23	Y23	Z23	X24	Y24	Z24	X25	Y25	Z25	X26	Y26	Z26	X27	Y27	Z27	X28	Y28	Z28	X29	Y29	Z29	X30	Y30	Z30	X31	Y31	Z31	X32	Y32	Z32	X33	Y33	Z33	X34	Y34	Z34	X35	Y35	Z35	X36	Y36	Z36	X37	Y37	Z37	X38	Y38	Z38	X39	Y39	Z39	X40	Y40	Z40	X41	Y41	Z41	X42	Y42	Z42	X43	Y43	Z43	X44	Y44	Z44	X45	Y45	Z45	X46	Y46	Z46	X47	Y47	Z47	X48	Y48	Z48	X49	Y49	Z49	X50	Y50	Z50	X51	Y51	Z51	X52	Y52	Z52	X53	Y53	Z53	X54	Y54	Z54	

342	3.41	-4.623178958892822	1096.91845703125	-133.4984893798828	95.97843933105469	1105.75537109375	-220.9303131103516	41.03209686279297	1136.483520507812	-184.5331573486328	168.6750640869141	1336.4951171875	-12.87332057952881	19.90188217163086	1283.804077148438	-215.7910614013672	35.1314697265625	1577.865478515625	-190.8231048583984	139.4667816162109	1469.810424804688	-41.85788345336914	-56.52730178833008	1387.516967773438	-186.6936492919922	114.0510559082031	1562.41064453125	-257.4110412597656	218.8717651367188	1552.930419921875	-227.1259307861328	273.8980712890625	1426.360229492188	-284.9907836914062	326.9749755859375	1212.807373046875	-281.916015625	243.7723846435547	1187.114501953125	-300.8916015625	390.2976684570312	977.2662353515625	-147.0661773681641	370.1757507324219	936.9295043945312	-224.2627716064453	357.3476867675781	1101.13818359375	-260.191162109375	413.7272033691406	791.8771362304688	-97.53703308105469	399.1977233886719	869.9674682617188	-190.5080718994141	422.0357666015625	894.9473876953125	-129.8966827392578	-77.548828125	1550.343872070312	-39.09052276611328	-135.7360229492188	1473.926879882812	-22.40354156494141	-157.7534484863281	1182.675170898438	-48.0586051940918	-74.06794738769531	1185.683227539062	-99.2337646484375	-78.76100921630859	927.97412109375	47.30768203735352	-144.0770263671875	918.2904052734375	-4.835563659667969	-160.0768127441406	1108.729858398438	-26.20478248596191	-54.55564498901367	733.0609741210938	36.26021575927734	-71.00897979736328	816.824951171875	61.94591903686523	-129.3520202636719	814.7578125	17.35459899902344	-7.277645111083984	1752.046875	-116.4453887939453	181.2838745117188	1813.910888671875	-15.94291114807129	63.39547729492188	1807.583740234375	39.49659729003906	112.4012603759766	1762.013549804688	-178.2467956542969	240.4146118164062	1022.648254394531	-229.152587890625	-3.72862720489502	1001.563720703125	40.45861434936523	84.96237182617188	1075.418334960938	64.12644195556641	279.7926635742188	1082.913696289062	-114.4684677124023	211.0415344238281	518.7882080078125	-257.8722839355469	225.7841796875	671.0652465820312	-264.0167541503906	-6.535057067871094	96.8814697265625	-503.2268371582031	95.34954833984375	330.5898132324219	-423.8381652832031	106.0554275512695	31.82584953308105	-317.8984985351562	30.27360153198242	49.30362701416016	-343.8173522949219	87.83635711669922	39.75849151611328	-446.3789978027344	-92.68576049804688	134.1389007568359	-502.0972900390625	105.8447570800781	526.7664794921875	81.70670318603516	40.68711471557617	797.7719116210938	76.98755645751953	203.63818359375	22.29570388793945	59.69548797607422	113.1969604492188	391.9635314941406	81.69795227050781	286.6864013671875	74.08147430419922	268.3353881835938	322.9420166015625	57.36906051635742	209.5753631591797	203.7872467041016	39.88364791870117	191.1680755615234	241.7349395751953	26.27146530151367	-3.562662124633789	nan	nan	nan	
343	3.42	0.7637121677398682	1098.856079101562	-124.8525772094727	101.7532272338867	1107.2607421875	-211.7078399658203	46.12906646728516	1138.395751953125	-175.6319885253906	172.3642578125	1338.5654296875	-3.688180446624756	25.41693496704102	1284.732421875	-207.3643188476562	38.6750602722168	1579.00341796875	-183.0516204833984	142.8506774902344	1471.687744140625	-33.35599517822266	-52.30563735961914	1388.467041015625	-178.49267578125	117.7894744873047	1563.619140625	-249.2466125488281	222.6469116210938	1554.736694335938	-218.6948089599609	277.5089721679688	1428.167724609375	-276.8840026855469	328.9790344238281	1214.348266601562	-275.4629516601562	245.4728698730469	1189.266235351562	-294.0397644042969	391.7318420410156	978.0062255859375	-141.7320098876953	371.0433959960938	937.9797973632812	-218.9272003173828	358.8663940429688	1102.41064453125	-254.3349609375	414.3914489746094	792.3351440429688	-92.77783203125	399.9085998535156	870.7808227539062	-185.4934234619141	423.1117858886719	895.4635620117188	-124.9270935058594	-74.40264129638672	1551.757446289062	-31.63218688964844	-132.4813690185547	1475.28125	-14.90404224395752	-153.7132110595703	1183.891357421875	-39.43049621582031	-69.44345092773438	1186.883666992188	-90.10172271728516	-74.67436218261719	929.5787963867188	57.09651184082031	-139.9401702880859	919.7189331054688	4.65685510635376	-155.8033752441406	1109.791748046875	-17.35222816467285	-50.1793098449707	734.6049194335938	46.51890563964844	-66.85602569580078	818.4212646484375	71.98693084716797	-124.9918060302734	816.225830078125	27.20298194885254	-4.165794849395752	1753.850219726562	-109.5437698364258	183.9628143310547	1815.737182617188	-8.427122116088867	65.89433288574219	1809.798828125	46.58729934692383	115.6380996704102	1763.451904296875	-170.8343963623047	246.1029052734375	1024.059448242188	-218.6606597900391	-0.1526899039745331	1003.740783691406	49.15909957885742	88.36555480957031	1077.432250976562	73.37513732910156	284.3724060058594	1084.660522460938	-103.7474212646484	220.5430450439453	519.1150512695312	-245.6967010498047	233.9711303710938	671.8055419921875	-252.1467132568359	-2.200450897216797	103.7655334472656	-500.3666687011719	103.0388259887695	334.8908386230469	-415.4255676269531	106.160758972168	32.00522613525391	-318.2319030761719	31.74310111999512	50.37857055664062	-342.7882385253906	89.26675415039062	41.14398574829102	-445.2117919921875	-86.95206451416016	143.8074798583984	-498.02099609375	108.2014999389648	527.6470947265625	87.82966613769531	43.10321807861328	799.258544921875	85.20800018310547	204.0340728759766	22.15864372253418	60.31623840332031	115.1640014648438	392.7508239746094	86.58670806884766	287.6112976074219	71.67491912841797	269.8918762207031	323.5210876464844	56.48895645141602	210.1406707763672	204.496826171875	39.44466018676758	192.1465911865234	241.3843231201172	26.65362739562988	-3.27142333984375	nan	nan	nan	
344	3.43	6.007969379425049	1100.692749023438	-116.2608871459961	107.3972930908203	1108.733764648438	-202.5105133056641	51.09601593017578	1140.277587890625	-166.7858428955078	175.9237518310547	1340.587158203125	5.508854866027832	30.65847015380859	1285.704223632812	-198.9773406982422	42.22579956054688	1580.131225585938	-175.2741394042969	146.1790313720703	1473.533081054688	-24.81852531433105	-48.1340217590332	1389.4404296875	-170.2743682861328	121.5632171630859	1564.820434570312	-241.0464019775391	226.4244384765625	1556.506103515625	-210.1646728515625	281.1783752441406	1429.97705078125	-268.6841735839844	330.9958801269531	1215.907470703125	-268.9933776855469	247.1952362060547	1191.449096679688	-287.201171875	393.1262512207031	978.6402587890625	-136.5628509521484	371.8735656738281	939	-213.779296875	360.381103515625	1103.68115234375	-248.5382232666016	414.9387512207031	792.6489868164062	-88.320556640625	400.5384216308594	871.5149536132812	-180.7315368652344	424.1122741699219	895.8486328125	-120.1832733154297	-71.28662109375	1553.193969726562	-24.18180656433105	-129.2666625976562	1476.693481445312	-7.403250217437744	-149.7588500976562	1185.14990234375	-30.80257797241211	-65.02070617675781	1188.124755859375	-80.99165344238281	-70.61721801757812	931.3456420898438	67.15316009521484	-135.8113098144531	921.2237548828125	14.38194847106934	-151.6333160400391	1110.940673828125	-8.430737495422363	-45.70542144775391	736.3161010742188	57.29653167724609	-62.67172622680664	820.2083129882812	82.42584228515625	-120.5672225952148	817.8038330078125	37.40390396118164	-1.09539270401001	1755.571411132812	-102.6338195800781	186.6098327636719	1817.542846679688	-0.9483065605163574	68.36355590820312	1811.942138671875	53.668701171875	118.8298568725586	1764.837158203125	-163.4412841796875	251.6491241455078	1025.492797851562	-208.0902557373047	3.275665998458862	1005.765197753906	57.86759567260742	91.60268402099609	1079.41259765625	82.576904296875	288.8235168457031	1086.425659179688	-93.01333618164062	230.5753784179688	519.3599243164062	-232.9560241699219	242.4558868408203	672.4678955078125	-239.9220581054688	2.686192274093628	111.0881805419922	-497.0304870605469	111.3825302124023	339.2445068359375	-406.346923828125	106.2365036010742	32.1164436340332	-318.6374206542969	33.40045547485352	51.4918098449707	-341.6421508789062	90.96370697021484	42.89901733398438	-443.8919677734375	-80.43565368652344	153.9674682617188	-493.3642578125	110.5324249267578	528.42919921875	93.85569000244141	45.55421829223633	800.6038208007812	93.348876953125	204.4269409179688	21.96364784240723	60.96691513061523	117.0188674926758	393.4545593261719	91.36672973632812	288.3303527832031	69.36484527587891	271.3923950195312	323.9656677246094	55.75300216674805	210.7118835449219	205.0938568115234	38.98075103759766	193.0833740234375	240.9661560058594	26.98305320739746	-2.985103607177734	nan	nan	nan	
345	3.44	11.08215522766113	1102.363525390625	-107.7294387817383	112.8563613891602	1110.090576171875	-193.3634338378906	55.89511489868164	1142.032470703125	-158.0214996337891	179.3757629394531	1342.490234375	14.68356704711914	35.59951782226562	1286.6572265625	-190.6251068115234	45.77373504638672	1581.196411132812	-167.4944458007812	149.4629669189453	1475.275390625	-16.27375602722168	-44.03719711303711	1390.381958007812	-162.0447845458984	125.3505096435547	1565.95263671875	-232.8306884765625	230.1900482177734	1558.161499023438	-201.5733489990234	284.8815002441406	1431.699584960938	-260.4186706542969	333.0492248535156	1217.409301757812	-262.4820251464844	248.9739532470703	1193.569946289062	-280.3555908203125	394.5139465332031	979.1024780273438	-131.5303039550781	372.7020874023438	939.9266357421875	-208.7963714599609	361.9244995117188	1104.8798828125	-242.7721557617188	415.40576171875	792.7557373046875	-84.14569854736328	401.1242065429688	872.1058349609375	-176.198486328125	425.0727233886719	896.0364379882812	-115.6409683227539	-68.18681335449219	1554.591674804688	-16.72324752807617	-126.0773162841797	1478.095458984375	0.1207624822854996	-145.9059906005859	1186.386962890625	-22.16347885131836	-60.8100700378418	1189.340209960938	-71.91548156738281	-66.58015441894531	933.2229614257812	77.46596527099609	-131.6708068847656	922.7413330078125	24.35596084594727	-147.5833740234375	1112.123657226562	0.5639601945877075	-41.10257720947266	738.1583862304688	68.61049652099609	-58.43484115600586	822.1437377929688	93.26471710205078	-116.0627136230469	819.4324340820312	47.97237014770508	1.931732892990112	1757.140380859375	-95.70752716064453	189.2354583740234	1819.272827148438	6.479527473449707	70.81721496582031	1813.957763671875	60.72565841674805	121.9860610961914	1766.107421875	-156.0813903808594	257.0298461914062	1026.85498046875	-197.4727935791016	6.572777271270752	1007.603088378906	66.55825042724609	94.70895385742188	1081.281982421875	91.70034027099609	293.1362915039062	1088.13818359375	-82.34434509277344	241.0491638183594	519.4938354492188	-219.6835021972656	251.2022705078125	673.0093994140625	-227.3897552490234	8.187012672424316	118.8390884399414	-493.2326354980469	120.3607025146484	343.6034851074219	-396.6248474121094	106.2957153320312	32.08927536010742	-319.08154296875	35.28685760498047	52.69652938842773	-340.4019775390625	92.97518157958984	45.0914192199707	-442.3958129882812	-73.08589935302734	164.557373046875	-488.1610412597656	112.7411193847656	529.0673217773438	99.69957733154297	48.10878753662109	801.7643432617188	101.3054656982422	204.7462463378906	21.76991844177246	61.57658767700195	118.6763076782227	394.0181579589844	95.93019104003906	288.8492126464844	67.0958251953125	272.8278198242188	324.2972106933594	55.06680297851562	211.3103179931641	205.5753173828125	38.47091674804688	193.9412994384766	240.5379180908203	27.27048110961914	-2.714300155639648	nan	nan	nan	
